<svg width="38" height="20" viewBox="0 0 38 20" fill="none" xmlns="http://www.w3.org/2000/svg">
<rect x="0.5" y="0.5" width="37" height="19" rx="1.5" stroke="#FFC700"/>
<path d="M24.3828 14L21.7578 5.70312H23.8906L25.4453 11.1406L26.875 5.70312H28.9922L30.375 11.1406L31.9609 5.70312H34.125L31.4609 14H29.3516L27.9219 8.66406L26.5156 14H24.3828Z" fill="#FFC700"/>
<path d="M18.7344 11.3594L20.9219 11.7266C20.6406 12.5286 20.1953 13.1406 19.5859 13.5625C18.9818 13.9792 18.224 14.1875 17.3125 14.1875C15.8698 14.1875 14.8021 13.7161 14.1094 12.7734C13.5625 12.0182 13.2891 11.0651 13.2891 9.91406C13.2891 8.53906 13.6484 7.46354 14.3672 6.6875C15.0859 5.90625 15.9948 5.51562 17.0938 5.51562C18.3281 5.51562 19.3021 5.92448 20.0156 6.74219C20.7292 7.55469 21.0703 8.80208 21.0391 10.4844H15.5391C15.5547 11.1354 15.7318 11.6432 16.0703 12.0078C16.4089 12.3672 16.8307 12.5469 17.3359 12.5469C17.6797 12.5469 17.9688 12.4531 18.2031 12.2656C18.4375 12.0781 18.6146 11.776 18.7344 11.3594ZM18.8594 9.14062C18.8438 8.50521 18.6797 8.02344 18.3672 7.69531C18.0547 7.36198 17.6745 7.19531 17.2266 7.19531C16.7474 7.19531 16.3516 7.36979 16.0391 7.71875C15.7266 8.06771 15.5729 8.54167 15.5781 9.14062H18.8594Z" fill="#FFC700"/>
<path d="M11.6953 14H9.5V9.76562C9.5 8.86979 9.45312 8.29167 9.35938 8.03125C9.26562 7.76562 9.11198 7.5599 8.89844 7.41406C8.6901 7.26823 8.4375 7.19531 8.14062 7.19531C7.76042 7.19531 7.41927 7.29948 7.11719 7.50781C6.8151 7.71615 6.60677 7.99219 6.49219 8.33594C6.38281 8.67969 6.32812 9.3151 6.32812 10.2422V14H4.13281V5.70312H6.17188V6.92188C6.89583 5.98438 7.80729 5.51562 8.90625 5.51562C9.39062 5.51562 9.83333 5.60417 10.2344 5.78125C10.6354 5.95312 10.9375 6.17448 11.1406 6.44531C11.349 6.71615 11.4922 7.02344 11.5703 7.36719C11.6536 7.71094 11.6953 8.20312 11.6953 8.84375V14Z" fill="#FFC700"/>
</svg>
